<svg width="1920" height="1920" viewBox="0 0 1920 1920" fill="none" xmlns="http://www.w3.org/2000/svg">
<rect width="1920" height="1920" rx="320" fill="white"/>
<path d="M947.631 1542.4C856.965 1542.4 768.965 1531.2 683.631 1508.8C598.298 1486.4 528.965 1456.53 475.631 1419.2L579.631 1185.6C629.765 1218.67 687.898 1245.33 754.031 1265.6C820.165 1285.87 885.231 1296 949.231 1296C1070.83 1296 1131.63 1265.6 1131.63 1204.8C1131.63 1172.8 1114.03 1149.33 1078.83 1134.4C1044.7 1118.4 989.231 1101.87 912.431 1084.8C828.165 1066.67 757.765 1047.47 701.231 1027.2C644.698 1005.87 596.165 972.267 555.631 926.4C515.098 880.533 494.831 818.667 494.831 740.8C494.831 672.533 513.498 611.2 550.831 556.8C588.165 501.333 643.631 457.6 717.231 425.6C791.898 393.6 883.098 377.6 990.831 377.6C1064.43 377.6 1136.96 386.133 1208.43 403.2C1279.9 419.2 1342.83 443.2 1397.23 475.2L1299.63 710.4C1192.96 652.8 1089.5 624 989.231 624C926.298 624 880.431 633.6 851.631 652.8C822.831 670.933 808.431 694.933 808.431 724.8C808.431 754.667 825.498 777.067 859.631 792C893.765 806.933 948.698 822.4 1024.43 838.4C1109.76 856.533 1180.16 876.267 1235.63 897.6C1292.16 917.867 1340.7 950.933 1381.23 996.8C1422.83 1041.6 1443.63 1102.93 1443.63 1180.8C1443.63 1248 1424.96 1308.8 1387.63 1363.2C1350.3 1417.6 1294.3 1461.33 1219.63 1494.4C1144.96 1526.4 1054.3 1542.4 947.631 1542.4Z" fill="black"/>
</svg>
