<?xml version="1.0" standalone="no"?>
<!DOCTYPE svg PUBLIC "-//W3C//DTD SVG 20010904//EN"
 "http://www.w3.org/TR/2001/REC-SVG-20010904/DTD/svg10.dtd">
<svg version="1.0" xmlns="http://www.w3.org/2000/svg"
 width="725.000000pt" height="277.000000pt" viewBox="0 0 725.000000 277.000000"
 preserveAspectRatio="xMidYMid meet">

<g transform="translate(0.000000,277.000000) scale(0.100000,-0.100000)"
fill="#000000" stroke="none">
<path d="M1317 2120 c-131 -39 -182 -79 -211 -164 -31 -95 -14 -197 45 -269
30 -37 135 -100 225 -135 103 -41 206 -97 230 -125 19 -23 24 -40 24 -86 0
-71 -17 -91 -78 -91 -59 0 -72 23 -72 127 l0 83 -187 0 -186 0 6 -95 c4 -52
13 -109 20 -127 23 -54 86 -102 173 -133 71 -25 96 -28 241 -32 159 -5 163 -5
263 26 163 51 204 102 204 256 1 100 -22 170 -71 218 -41 42 -157 104 -321
172 -127 53 -147 73 -147 143 0 49 28 82 71 82 43 0 64 -33 64 -100 l0 -60
185 0 185 0 0 73 c-1 129 -37 176 -172 224 -66 23 -90 26 -248 29 -152 3 -184
1 -243 -16z"/>
<path d="M2070 2015 l0 -105 120 0 120 0 0 -410 0 -409 201 -3 c110 -2 203 -1
205 1 2 2 4 188 4 413 l0 408 115 0 115 0 0 105 0 105 -440 0 -440 0 0 -105z"/>
<path d="M3040 1700 c0 -394 1 -423 19 -458 38 -74 89 -107 226 -147 74 -21
107 -25 224 -25 144 0 223 15 306 58 48 25 109 86 126 127 9 22 14 146 17 448
l4 417 -206 0 -206 0 0 -423 c0 -316 -3 -426 -12 -435 -16 -16 -73 -15 -87 1
-7 10 -12 144 -13 433 l-3 419 -197 3 -198 2 0 -420z"/>
<path d="M4110 1605 l0 -515 323 2 322 3 0 100 0 100 -122 3 -123 3 0 409 0
410 -200 0 -200 0 0 -515z"/>
<path d="M4850 1605 l0 -515 350 0 350 0 0 105 0 105 -145 0 -145 0 0 110 0
109 123 3 122 3 3 98 3 97 -126 0 -125 0 0 95 0 94 133 3 132 3 0 100 0 100
-337 3 -338 2 0 -515z"/>
<path d="M5669 2116 c-2 -2 -3 -234 -1 -515 l2 -511 198 2 197 3 2 230 c1 139
6 231 12 233 5 2 27 -2 49 -7 58 -16 62 -33 62 -261 l0 -200 185 0 185 0 0
206 c0 228 -3 240 -65 283 -19 12 -55 29 -82 36 -41 11 -44 13 -18 14 42 1
114 40 139 74 17 23 22 47 24 123 4 86 2 100 -23 150 -48 97 -136 137 -305
138 l-105 1 -3 -79 -3 -79 37 -30 36 -30 -4 -75 c-4 -87 -19 -105 -82 -100
l-38 3 1 128 c1 71 -1 160 -5 198 l-7 69 -192 0 c-105 0 -194 -2 -196 -4z"/>
<path d="M1753 849 c14 -8 17 -25 17 -104 0 -79 -3 -96 -17 -104 -14 -8 -4
-10 42 -10 46 0 56 2 43 10 -13 7 -18 23 -18 54 0 25 4 45 9 45 6 0 22 -24 38
-52 26 -49 31 -53 68 -56 34 -3 38 -1 24 10 -9 7 -30 35 -48 62 -30 45 -31 51
-20 85 17 52 21 56 35 36 8 -10 20 -15 29 -11 20 7 16 25 -8 40 -25 16 -49 -4
-67 -55 -11 -32 -22 -45 -38 -47 -20 -3 -22 1 -22 42 0 32 5 48 18 55 13 8 3
10 -43 10 -46 0 -56 -2 -42 -10z"/>
<path d="M2044 846 c-68 -30 -80 -128 -22 -183 25 -24 37 -28 84 -28 50 0 59
3 85 33 64 71 23 179 -71 188 -26 3 -58 -2 -76 -10z m102 -21 c11 -16 17 -46
17 -80 0 -64 -22 -105 -57 -105 -41 0 -61 35 -61 105 0 48 5 68 19 84 26 29
62 27 82 -4z"/>
<path d="M2263 849 c14 -8 17 -25 17 -104 0 -79 -3 -96 -17 -104 -15 -8 -10
-10 21 -11 35 0 38 2 22 13 -14 10 -16 26 -14 96 l3 83 39 -91 c22 -51 43 -94
47 -96 4 -3 24 39 46 92 l38 97 3 -84 c2 -71 0 -87 -14 -97 -15 -11 -8 -13 47
-12 35 0 57 3 49 6 -25 10 -30 25 -30 108 0 83 4 98 30 108 8 3 -7 5 -34 4
l-50 -2 -29 -72 c-16 -40 -32 -71 -36 -68 -4 2 -20 36 -36 74 l-28 71 -46 0
c-36 -1 -42 -3 -28 -11z"/>
<path d="M2663 849 c27 -16 21 -24 -27 -37 -34 -9 -46 -18 -56 -42 -11 -28
-11 -34 7 -58 11 -15 35 -31 54 -36 45 -12 47 -15 25 -32 -18 -13 -14 -14 39
-14 53 0 57 1 39 14 -22 17 -22 17 36 36 83 28 81 109 -5 132 -49 13 -55 21
-27 37 13 8 3 10 -43 10 -46 0 -56 -2 -42 -10z m17 -104 c0 -66 -10 -81 -38
-53 -16 16 -16 90 0 106 28 28 38 13 38 -53z m88 53 c16 -16 16 -90 0 -106
-28 -28 -38 -13 -38 53 0 66 10 81 38 53z"/>
<path d="M2934 846 c-68 -30 -80 -128 -22 -183 25 -24 37 -28 84 -28 50 0 59
3 85 33 64 71 23 179 -71 188 -26 3 -58 -2 -76 -10z m102 -21 c11 -16 17 -46
17 -80 0 -64 -22 -105 -57 -105 -41 0 -61 35 -61 105 0 48 5 68 19 84 26 29
62 27 82 -4z"/>
<path d="M3153 849 c14 -8 17 -25 17 -104 0 -79 -3 -96 -17 -104 -14 -8 -4
-10 42 -10 46 0 56 2 43 10 -13 7 -18 23 -18 53 0 43 1 44 38 50 76 12 97 82
31 105 -42 15 -161 15 -136 0z m105 -11 c26 -26 8 -88 -25 -88 -9 0 -13 16
-13 50 0 51 12 64 38 38z"/>
<path d="M3350 828 l0 -33 13 25 c8 16 23 26 40 28 l27 3 0 -101 c0 -95 -1
-101 -22 -110 -17 -6 -7 -9 42 -9 49 0 61 2 48 10 -15 8 -18 25 -18 109 0 92
2 100 19 100 11 0 27 -7 35 -16 15 -14 16 -14 16 5 0 20 -6 21 -100 21 l-100
0 0 -32z"/>
<path d="M3593 849 c14 -8 17 -25 17 -104 0 -79 -3 -96 -17 -104 -14 -8 -4
-10 42 -10 46 0 56 2 43 10 -13 7 -18 23 -18 54 l0 45 40 0 40 0 0 -49 c0 -39
-4 -51 -17 -54 -10 -3 11 -5 47 -5 36 0 57 2 48 5 -16 4 -18 18 -18 108 0 90
2 104 18 108 9 3 -12 5 -48 5 -36 0 -57 -2 -47 -5 13 -3 17 -15 17 -54 l0 -49
-40 0 -40 0 0 45 c0 31 5 47 18 54 13 8 3 10 -43 10 -46 0 -56 -2 -42 -10z"/>
<path d="M3957 854 c-2 -5 -21 -49 -41 -99 -21 -49 -46 -98 -58 -107 -20 -18
-19 -18 23 -17 24 1 36 3 26 6 -12 3 -17 12 -15 26 4 30 75 38 95 11 17 -24
16 -32 -4 -37 -10 -3 9 -5 41 -6 l59 -1 -20 23 c-11 12 -34 58 -52 102 -36 92
-46 111 -54 99z m-9 -152 c-17 -2 -32 -1 -35 1 -2 3 3 22 12 43 l17 39 18 -40
17 -40 -29 -3z"/>
<path d="M4170 853 c-27 -10 -50 -36 -50 -55 0 -10 11 -30 24 -43 22 -22 23
-25 8 -47 -8 -13 -26 -35 -40 -50 l-26 -28 35 0 c31 0 40 6 68 45 44 62 51 63
51 11 0 -34 -4 -46 -17 -49 -10 -3 11 -5 47 -5 36 0 57 2 48 5 -16 4 -18 18
-18 108 0 90 2 104 18 108 9 3 -17 5 -58 5 -41 0 -82 -2 -90 -5z m70 -58 c0
-47 -3 -55 -19 -55 -24 0 -43 24 -43 55 0 31 19 55 43 55 16 0 19 -8 19 -55z"/>
<path d="M4453 849 c14 -8 17 -25 17 -104 0 -79 -3 -96 -17 -104 -15 -8 -10
-10 21 -11 35 0 38 2 22 13 -14 10 -16 26 -14 96 l3 83 39 -91 c22 -51 43 -94
47 -96 4 -3 24 39 46 92 l38 97 3 -84 c2 -71 0 -87 -14 -97 -15 -11 -8 -13 47
-12 35 0 57 3 49 6 -25 10 -30 25 -30 108 0 83 4 98 30 108 8 3 -7 5 -34 4
l-50 -2 -29 -72 c-16 -40 -32 -71 -36 -68 -4 2 -20 36 -36 74 l-28 71 -46 0
c-36 -1 -42 -3 -28 -11z"/>
<path d="M4773 849 c14 -8 17 -25 17 -104 0 -79 -3 -96 -17 -104 -13 -8 8 -10
78 -11 92 0 97 1 103 23 10 40 6 53 -10 25 -15 -28 -47 -43 -81 -36 -14 2 -19
14 -21 51 -3 42 -1 48 15 45 9 -2 23 -14 30 -28 12 -23 13 -20 13 35 0 55 -1
58 -13 35 -7 -14 -20 -26 -30 -28 -14 -3 -17 5 -17 47 l0 51 34 0 c25 0 39 -7
50 -22 l16 -22 0 27 0 27 -92 0 c-68 -1 -88 -3 -75 -11z"/>
<path d="M5003 849 c14 -8 17 -25 17 -104 0 -79 -3 -96 -17 -104 -27 -16 126
-14 157 2 18 9 26 22 28 48 4 44 -13 60 -73 67 l-45 5 0 44 0 44 42 -3 c34 -2
45 -8 55 -28 l13 -25 0 33 0 32 -97 0 c-72 -1 -93 -3 -80 -11z m115 -111 c17
-17 15 -73 -3 -88 -28 -23 -45 -4 -45 50 0 41 3 50 18 50 10 0 23 -5 30 -12z"/>
<path d="M5233 849 c14 -8 17 -25 17 -104 0 -79 -3 -96 -17 -104 -13 -8 8 -10
78 -11 92 0 97 1 103 23 10 40 6 53 -10 25 -15 -28 -47 -43 -81 -36 -14 2 -19
14 -21 51 -3 42 -1 48 15 45 9 -2 23 -14 30 -28 12 -23 13 -20 13 35 0 55 -1
58 -13 35 -7 -14 -20 -26 -30 -28 -14 -3 -17 5 -17 47 l0 51 34 0 c25 0 39 -7
50 -22 l16 -22 0 27 0 27 -92 0 c-68 -1 -88 -3 -75 -11z"/>
<path d="M5502 853 c14 -4 18 -19 21 -91 l3 -87 2 88 2 87 30 0 30 0 0 -100
c0 -84 -3 -101 -17 -109 -14 -8 -2 -10 47 -10 36 0 58 3 50 6 -26 10 -30 25
-30 110 0 61 4 86 16 97 14 15 7 16 -78 15 -51 -1 -85 -3 -76 -6z"/>
<path d="M5713 849 c14 -8 17 -25 17 -104 0 -79 -3 -96 -17 -104 -27 -16 126
-14 157 2 19 10 25 20 25 47 0 40 -28 60 -82 60 -32 0 -33 1 -33 45 0 31 5 47
18 54 13 8 3 10 -43 10 -46 0 -56 -2 -42 -10z m115 -121 c17 -17 15 -63 -3
-78 -27 -22 -45 -4 -45 45 0 37 3 45 18 45 10 0 23 -5 30 -12z"/>
<path d="M5435 670 c-9 -15 13 -40 35 -40 9 0 25 10 36 23 l19 22 -23 -19
c-23 -20 -23 -20 -29 2 -6 23 -27 29 -38 12z"/>
</g>
</svg>
